<svg width="1384" height="112" viewBox="0 0 1384 112" fill="none" xmlns="http://www.w3.org/2000/svg">
<rect x="0.5" y="0.5" width="263" height="111" rx="3.5" fill="#F4F4FD" stroke="#8E8F99"/>
<path d="M161.546 68.1952L144.66 51.1851L146.534 41.9541C147.018 42.1429 147.532 42.2416 148.051 42.2453H148.064C150.448 42.2735 152.404 40.3633 152.432 37.9788C152.461 35.5943 150.55 33.6384 148.166 33.6101C145.781 33.582 143.825 35.4921 143.797 37.8767C143.791 38.3869 143.875 38.8941 144.047 39.3749L134.127 40.5856L117.945 24.32C117.747 24.1175 117.476 24.0023 117.192 24C116.912 24.0015 116.644 24.1129 116.445 24.3104L113.42 27.3184C113.004 27.7349 113.004 28.4101 113.42 28.8267L115.048 30.4779C108.742 42.0737 110.79 56.4335 120.087 65.8037C120.172 65.8853 120.271 65.9513 120.379 65.9989C120.312 66.3599 120.277 66.7261 120.275 67.0933V79.4667H107.475C104.531 79.4701 102.145 81.856 102.141 84.8V86.9333C102.141 87.5224 102.619 88 103.208 88H152.275C152.864 88 153.341 87.5224 153.341 86.9333V84.8C153.338 81.856 150.952 79.4701 148.008 79.4667H135.208V73.9829C137.213 74.4035 139.256 74.6179 141.305 74.6229C146.221 74.6176 151.059 73.392 155.385 71.056L157.021 72.7019C157.22 72.9044 157.491 73.0196 157.775 73.0219C158.055 73.0204 158.323 72.9089 158.521 72.7115L161.546 69.7035C161.963 69.2869 161.963 68.6117 161.546 68.1952ZM146.56 36.4661C147.395 35.6352 148.746 35.6389 149.577 36.4743C150.407 37.3096 150.404 38.6604 149.568 39.4912C149.169 39.8889 148.627 40.1121 148.063 40.112H148.057C146.879 40.1059 145.929 39.1459 145.935 37.9676C145.938 37.4036 146.164 36.8639 146.564 36.4661H146.56V36.4661ZM144.049 43.4752L142.852 49.3664L140.501 47.0016L144.049 43.4752ZM142.837 41.6715L138.997 45.4891L136.026 42.5024L142.837 41.6715ZM148.008 81.6C149.775 81.6 151.208 83.0327 151.208 84.8V85.8667H104.275V84.8C104.275 83.0327 105.707 81.6 107.475 81.6H148.008ZM133.075 77.3333V79.4667H122.408V77.3333H133.075ZM122.408 75.2V67.0933C122.408 64.5056 124.801 62.4 127.741 62.4C130.682 62.4 133.075 64.5056 133.075 67.0933V75.2H122.408ZM135.208 71.808V67.0933C135.208 63.3291 131.859 60.2667 127.741 60.2667C125.079 60.2259 122.59 61.5809 121.179 63.8389C113.064 55.2913 111.236 42.5485 116.622 32.0647L153.826 69.4816C148.081 72.404 141.495 73.2268 135.208 71.808ZM157.786 70.4405L156.283 68.9291L117.181 29.5915L115.672 28.0789L117.181 26.5749L133.051 42.5344C133.059 42.5344 133.063 42.5483 133.071 42.5536L159.3 68.9365L157.786 70.4405Z" fill="#2E2F42"/>
<path d="M127.751 64.5333H127.741C125.974 64.5306 124.539 65.9612 124.537 67.7285C124.534 69.4958 125.964 70.9306 127.732 70.9333H127.741C129.509 70.936 130.944 69.5054 130.946 67.7381C130.949 65.9708 129.518 64.536 127.751 64.5333ZM128.498 68.4896C128.297 68.6893 128.025 68.801 127.741 68.8C127.152 68.7969 126.677 68.3169 126.68 67.7278C126.682 67.4458 126.795 67.176 126.995 66.977C127.193 66.7796 127.461 66.6681 127.741 66.6666C128.33 66.6697 128.806 67.1497 128.802 67.7388C128.801 68.0208 128.688 68.2906 128.488 68.4896H128.498Z" fill="#4D5AE5"/>
<rect x="288.5" y="0.5" width="263" height="111" rx="3.5" fill="#F4F4FD" stroke="#8E8F99"/>
<g clip-path="url(#clip0_785756_361)">
<path d="M450.593 54.6025C450.59 37.6978 436.883 23.9966 419.978 24C403.073 24.0034 389.372 37.7109 389.375 54.6157C389.378 67.9316 397.989 79.7178 410.674 83.7681C410.795 83.8062 410.921 83.8257 411.047 83.8252C411.289 83.8247 411.525 83.7603 411.732 83.6377C412.002 83.478 412.204 83.2241 412.299 82.9248L420.029 58.4248C422.142 58.4141 423.846 56.6919 423.835 54.5791C423.824 52.4658 422.103 50.7617 419.989 50.7725C419.421 50.7749 418.86 50.9058 418.349 51.1553L408.137 40.9419C407.63 40.4526 406.823 40.4668 406.334 40.9731C405.856 41.4678 405.856 42.251 406.334 42.7456L416.541 52.9639C415.757 54.5625 416.205 56.4922 417.613 57.582L410.248 80.9277C395.692 75.5659 388.239 59.4199 393.601 44.8643C398.963 30.3086 415.109 22.8555 429.665 28.2173C444.22 33.5791 451.673 49.7256 446.312 64.2808C443.692 71.3921 438.31 77.1431 431.387 80.2275L430.591 76.479C430.446 75.79 429.769 75.3496 429.08 75.4956C428.862 75.542 428.661 75.644 428.495 75.792L420.821 82.6431C420.294 83.1113 420.248 83.9175 420.716 84.4439C420.869 84.6147 421.064 84.7417 421.283 84.8115L431.08 87.9385C431.75 88.1538 432.469 87.7852 432.684 87.1143C432.752 86.9023 432.764 86.6768 432.718 86.459L431.936 82.7808C443.264 78.0049 450.62 66.8965 450.593 54.6025V54.6025ZM419.984 53.3271C420.688 53.3271 421.26 53.8984 421.26 54.6025C421.26 55.3071 420.688 55.8779 419.984 55.8779C419.28 55.8779 418.709 55.3071 418.709 54.6025C418.709 53.8984 419.28 53.3271 419.984 53.3271ZM424.185 83.0552L428.553 79.1587L429.759 84.8394L424.185 83.0552Z" fill="#2E2F42"/>
<path d="M418.709 30.3701V32.9209C418.709 33.6255 419.28 34.1963 419.984 34.1963C420.688 34.1963 421.26 33.6255 421.26 32.9209V30.3701C421.26 29.666 420.688 29.0947 419.984 29.0947C419.28 29.0947 418.709 29.666 418.709 30.3701Z" fill="#4D5AE5"/>
<path d="M395.752 53.3271C395.047 53.3271 394.477 53.8984 394.477 54.6025C394.477 55.3071 395.047 55.8779 395.752 55.8779H398.303C399.007 55.8779 399.578 55.3071 399.578 54.6025C399.578 53.8984 399.007 53.3271 398.303 53.3271H395.752Z" fill="#4D5AE5"/>
<path d="M444.216 55.8779C444.921 55.8779 445.492 55.3071 445.492 54.6025C445.492 53.8984 444.921 53.3271 444.216 53.3271H441.666C440.961 53.3271 440.39 53.8984 440.39 54.6025C440.39 55.3071 440.961 55.8779 441.666 55.8779H444.216Z" fill="#4D5AE5"/>
</g>
<rect x="576.5" y="0.5" width="263" height="111" rx="3.5" fill="#F4F4FD" stroke="#8E8F99"/>
<g clip-path="url(#clip1_785756_361)">
<path d="M705.851 53.9292H707.983V63.5242H705.851V53.9292Z" fill="#4D5AE5"/>
<path d="M714.38 58.1936H716.512V63.5242H714.38V58.1936Z" fill="#4D5AE5"/>
<path d="M697.322 61.392H699.454V63.5242H697.322V61.392Z" fill="#4D5AE5"/>
<path d="M690.926 60.3258H693.058V63.5242H690.926V60.3258Z" fill="#4D5AE5"/>
<path d="M679.198 80.5819H730.372C732.138 80.5819 733.57 79.1499 733.57 77.3836V73.1192C733.57 71.3529 732.138 69.9208 730.372 69.9208H729.305V43.3342L735.361 37.5977C736.767 38.2905 738.468 37.8699 739.388 36.6003C740.308 35.3311 740.179 33.5836 739.083 32.4634C737.986 31.3431 736.242 31.176 734.953 32.0677C733.664 32.96 733.206 34.6513 733.868 36.0719L729.305 40.3972V37.9376C729.305 36.1713 727.873 34.7393 726.107 34.7393H683.463C681.696 34.7393 680.264 36.1713 680.264 37.9376V69.9208H679.198C677.432 69.9208 676 71.3529 676 73.1192V77.3836C676 79.1499 677.432 80.5819 679.198 80.5819ZM736.768 33.6732C737.357 33.6732 737.834 34.1505 737.834 34.7393C737.834 35.328 737.357 35.8054 736.768 35.8054C736.179 35.8054 735.702 35.328 735.702 34.7393C735.702 34.1505 736.179 33.6732 736.768 33.6732ZM682.397 37.9376C682.397 37.3488 682.874 36.8715 683.463 36.8715H726.107C726.696 36.8715 727.173 37.3488 727.173 37.9376V42.4149L725.041 44.441V40.0698C725.041 39.4811 724.564 39.0037 723.975 39.0037H685.595C685.006 39.0037 684.529 39.4811 684.529 40.0698V66.7225C684.529 67.3113 685.006 67.7886 685.595 67.7886H723.975C724.564 67.7886 725.041 67.3113 725.041 66.7225V47.3738L727.173 45.3535V69.9208H682.397V37.9376ZM691.992 51.797C690.549 51.7928 689.283 52.7538 688.899 54.1442C688.515 55.5346 689.109 57.0094 690.35 57.7455C691.59 58.4815 693.17 58.2967 694.206 57.2936L697.912 59.153C698.342 59.3686 698.865 59.2676 699.185 58.9079L707.062 50.0453L714.806 55.848C715.222 56.1593 715.802 56.126 716.178 55.7694L722.909 49.3941V65.6564H686.661V41.1359H722.909V46.4566L715.366 53.5997L707.557 47.7455C707.113 47.4134 706.489 47.4758 706.121 47.8897L698.135 56.8751L695.149 55.3821C695.171 55.254 695.185 55.1249 695.19 54.9953C695.19 53.2291 693.758 51.797 691.992 51.797ZM693.058 54.9953C693.058 55.5841 692.58 56.0614 691.992 56.0614C691.403 56.0614 690.926 55.5841 690.926 54.9953C690.926 54.4066 691.403 53.9292 691.992 53.9292C692.58 53.9292 693.058 54.4066 693.058 54.9953ZM699.454 72.0531H710.115V73.1192C710.115 73.7079 709.638 74.1853 709.049 74.1853H700.52C699.932 74.1853 699.454 73.7079 699.454 73.1192V72.0531ZM678.132 73.1192C678.132 72.5304 678.61 72.0531 679.198 72.0531H697.322V73.1192C697.322 74.8854 698.754 76.3175 700.52 76.3175H709.049C710.816 76.3175 712.248 74.8854 712.248 73.1192V72.0531H730.372C730.96 72.0531 731.438 72.5304 731.438 73.1192V77.3836C731.438 77.9724 730.96 78.4497 730.372 78.4497H679.198C678.61 78.4497 678.132 77.9724 678.132 77.3836V73.1192Z" fill="#2E2F42"/>
</g>
<rect x="864.5" y="0.5" width="263" height="111" rx="3.5" fill="#F4F4FD" stroke="#8E8F99"/>
<path d="M1027.95 33.0481C1027.82 32.663 1027.49 32.3815 1027.09 32.3227L1023.27 31.767L1021.56 28.3046C1021.2 27.5749 1020 27.5749 1019.64 28.3046L1017.93 31.767L1014.11 32.3229C1013.71 32.3815 1013.38 32.6621 1013.25 33.0483C1013.13 33.4344 1013.23 33.8589 1013.52 34.1416L1016.29 36.8372L1015.63 40.6431C1015.57 41.0431 1015.73 41.4474 1016.06 41.6864C1016.39 41.9275 1016.82 41.9573 1017.18 41.7674L1020.6 39.97L1024.02 41.7674C1024.17 41.8495 1024.35 41.89 1024.51 41.89C1024.74 41.89 1024.96 41.8218 1025.14 41.6863C1025.47 41.4474 1025.63 41.043 1025.57 40.643L1024.91 36.8371L1027.68 34.1415C1027.97 33.8578 1028.07 33.4343 1027.95 33.0481ZM1023.02 35.702C1022.77 35.9463 1022.66 36.3004 1022.72 36.6461L1023.1 38.8743L1021.1 37.8226C1020.94 37.7405 1020.77 37.7 1020.6 37.7C1020.43 37.7 1020.26 37.7405 1020.1 37.8226L1018.1 38.8743L1018.48 36.6461C1018.54 36.3004 1018.43 35.9474 1018.18 35.702L1016.56 34.1234L1018.79 33.798C1019.14 33.7479 1019.44 33.5293 1019.6 33.2145L1020.6 31.1879L1021.6 33.2145C1021.75 33.5291 1022.05 33.7479 1022.4 33.798L1024.64 34.1234L1023.02 35.702Z" fill="#4D5AE5"/>
<path d="M1016.27 65.0444H1014.13V67.1778H1016.27V65.0444Z" fill="#4D5AE5"/>
<path d="M1016.27 69.3112H1014.13V71.4446H1016.27V69.3112Z" fill="#4D5AE5"/>
<path d="M1018.4 67.1778H1016.27V69.3112H1018.4V67.1778Z" fill="#4D5AE5"/>
<path d="M1014.13 67.1778H1012V69.3112H1014.13V67.1778Z" fill="#4D5AE5"/>
<path d="M1008.8 76.778H1006.67V78.9113H1008.8V76.778Z" fill="#4D5AE5"/>
<path d="M1008.8 81.0446H1006.67V83.1781H1008.8V81.0446Z" fill="#4D5AE5"/>
<path d="M1010.93 78.9114H1008.8V81.0448H1010.93V78.9114Z" fill="#4D5AE5"/>
<path d="M1006.67 78.9114H1004.53V81.0448H1006.67V78.9114Z" fill="#4D5AE5"/>
<path d="M996 72.5113H993.867V74.6447H996V72.5113Z" fill="#4D5AE5"/>
<path d="M996 76.778H993.867V78.9113H996V76.778Z" fill="#4D5AE5"/>
<path d="M998.133 74.6445H996V76.778H998.133V74.6445Z" fill="#4D5AE5"/>
<path d="M993.867 74.6445H991.733V76.778H993.867V74.6445Z" fill="#4D5AE5"/>
<path d="M975.733 36.2439H973.6V38.3774H975.733V36.2439Z" fill="#4D5AE5"/>
<path d="M975.733 40.5108H973.6V42.6442H975.733V40.5108Z" fill="#4D5AE5"/>
<path d="M977.866 38.3774H975.733V40.5108H977.866V38.3774Z" fill="#4D5AE5"/>
<path d="M973.6 38.3774H971.466V40.5108H973.6V38.3774Z" fill="#4D5AE5"/>
<path d="M1013.43 52.3189C1012.85 51.5434 1012.01 51.0443 1011.05 50.9098C1010.09 50.7733 1009.14 51.026 1008.37 51.6138L1005.87 53.5327L1005.87 53.5338L1002.07 56.368L999.358 55.2864C1004.2 53.1136 1007.59 48.2698 1007.59 42.6462C1007.59 35.0002 1001.34 28.7793 993.663 28.7793C985.986 28.7793 979.74 35.0002 979.74 42.6462C979.74 45.4175 980.569 47.9945 981.981 50.163L976.453 50.115C976.45 50.115 976.447 50.115 976.443 50.115C976.426 50.115 976.412 50.1235 976.396 50.1247C976.291 50.1289 976.187 50.1503 976.086 50.1865C976.06 50.1962 976.034 50.2015 976.009 50.2132C975.997 50.2185 975.984 50.2195 975.971 50.2259L969.505 53.4185C969.504 53.4185 969.503 53.4185 969.503 53.4195L965.716 55.2405C965.674 55.2586 965.631 55.2831 965.59 55.3109C964.08 56.3156 963.566 58.289 964.393 59.9018C964.834 60.7594 965.583 61.391 966.505 61.68C966.86 61.7908 967.223 61.8453 967.584 61.8453C968.163 61.8453 968.737 61.7035 969.262 61.423L972.038 59.9467L976.566 57.6085L979.28 57.5925L968.396 68.4237C968.395 68.4248 968.394 68.4248 968.393 68.4258L965.716 71.0925C965.083 71.7219 964.735 72.557 964.735 73.4478C964.735 74.3374 965.083 75.1747 965.716 75.8052C966.365 76.4516 967.22 76.7758 968.074 76.7758C968.93 76.7758 969.783 76.4516 970.435 75.8052L973.063 73.1875L976.545 70.588L978.346 72.3821L974.823 75.8904C974.822 75.8916 974.821 75.8916 974.82 75.8926L972.142 78.5592C971.51 79.1886 971.162 80.0237 971.162 80.9145C971.162 81.8041 971.51 82.6414 972.142 83.2719C972.792 83.9183 973.647 84.2426 974.502 84.2426C975.356 84.2426 976.212 83.9183 976.862 83.2719L979.541 80.6052L983.826 76.3386C983.827 76.3374 983.827 76.3364 983.828 76.3353L985.847 74.3353L985.839 74.3278C985.852 74.315 985.87 74.3106 985.883 74.2969L996.215 62.9805L1003.16 63.9682C1003.21 63.9757 1003.26 63.9789 1003.31 63.9789C1003.44 63.9789 1003.56 63.948 1003.68 63.9021C1003.72 63.8894 1003.75 63.8722 1003.78 63.8552C1003.82 63.836 1003.86 63.8254 1003.9 63.8009L1010.32 59.5342C1010.35 59.5182 1010.36 59.4925 1010.38 59.4755C1010.41 59.4553 1010.44 59.4468 1010.46 59.4243L1013.01 57.0424C1014.33 55.8026 1014.51 53.7717 1013.43 52.3189ZM968.261 59.5403C967.914 59.7259 967.521 59.7632 967.144 59.6438C966.771 59.5275 966.468 59.2725 966.291 58.928C965.969 58.3008 966.155 57.537 966.719 57.1243L969.347 55.8602L969.979 57.7088L970.245 58.4853L968.261 59.5403ZM975.255 55.8849L972.158 57.4849L971.648 55.9915L971.281 54.9184L975.334 52.9172L975.255 55.8849ZM1005.45 42.644C1005.45 44.4808 1005.02 46.2132 1004.26 47.763L995.893 43.9646C995.806 42.8179 995.211 41.8142 994.317 41.189L997.245 31.4684C1002 32.981 1005.45 37.4173 1005.45 42.644ZM981.876 42.644C981.876 36.1746 987.165 30.9105 993.665 30.9105C994.171 30.9105 994.665 30.9531 995.155 31.015L992.291 40.5224C992.253 40.5213 992.216 40.5106 992.177 40.5106C990.112 40.5106 988.432 42.1853 988.432 44.2441C988.432 46.3027 990.112 47.9775 992.177 47.9775C993.566 47.9775 994.766 47.2106 995.413 46.0883L1003.14 49.5978C1000.99 52.4906 997.549 54.3776 993.665 54.3776C987.165 54.3776 981.876 49.1135 981.876 42.644ZM993.789 44.2441C993.789 45.1262 993.065 45.8441 992.177 45.8441C991.288 45.8441 990.565 45.1262 990.565 44.2441C990.565 43.3619 991.288 42.644 992.177 42.644C993.065 42.644 993.789 43.3619 993.789 44.2441ZM968.93 74.2925C968.457 74.7608 967.692 74.7598 967.221 74.2936C966.994 74.0664 966.869 73.7668 966.869 73.4478C966.869 73.1299 966.994 72.8301 967.221 72.6051L969.145 70.6882L970.847 72.3832L968.93 74.2925ZM975.357 81.7594C974.885 82.2276 974.119 82.2288 973.648 81.7605C973.42 81.5333 973.295 81.2336 973.295 80.9146C973.295 80.5967 973.42 80.297 973.648 80.072L975.573 78.1541L976.378 78.9552L977.276 79.8491L975.357 81.7594ZM982.321 74.8217C982.32 74.8227 982.319 74.8227 982.318 74.8238L978.788 78.3438L977.982 77.5427L977.084 76.6488L980.611 73.1384C980.611 73.1384 980.611 73.1384 980.611 73.1374C980.612 73.1363 980.613 73.1363 980.614 73.1353C980.694 73.0553 980.744 72.9593 980.793 72.8644C980.807 72.8366 980.834 72.8131 980.845 72.7844C980.879 72.7023 980.884 72.6138 980.897 72.5272C980.903 72.4781 980.924 72.4324 980.924 72.3821C980.924 72.3106 980.899 72.2414 980.884 72.1709C980.871 72.1069 980.871 72.0417 980.847 71.98C980.806 71.8797 980.737 71.7912 980.664 71.7047C980.644 71.6812 980.636 71.6514 980.614 71.629C980.614 71.629 980.614 71.629 980.613 71.629C980.612 71.628 980.612 71.6257 980.611 71.6247L977.397 68.4247C977.363 68.3906 977.319 68.3767 977.281 68.3479C977.224 68.3042 977.17 68.2637 977.107 68.2327C977.046 68.2028 976.984 68.1847 976.92 68.1676C976.852 68.1483 976.786 68.1334 976.714 68.1281C976.649 68.1238 976.588 68.1302 976.523 68.1377C976.452 68.1462 976.385 68.1558 976.315 68.1782C976.248 68.1996 976.189 68.2326 976.127 68.2678C976.087 68.2902 976.042 68.2977 976.005 68.3254L972.458 70.973L970.657 69.1788L975.455 64.4065L984.176 72.9838L982.321 74.8217ZM995.958 60.7883C995.927 60.7841 995.899 60.7958 995.868 60.7937C995.79 60.7894 995.715 60.7948 995.637 60.8076C995.577 60.8182 995.519 60.8299 995.461 60.8502C995.393 60.8737 995.331 60.9057 995.268 60.9441C995.208 60.9803 995.154 61.0187 995.102 61.0667C995.076 61.0891 995.045 61.0998 995.022 61.1253L985.625 71.4167L976.969 62.9035L982.635 57.2671C983.053 56.8511 983.055 56.1759 982.639 55.7577C982.429 55.5476 982.152 55.4441 981.876 55.4452V55.4442L977.439 55.4709L977.494 52.2559L983.702 52.3093C986.232 54.8971 989.761 56.511 993.665 56.511C994.54 56.511 995.393 56.4204 996.224 56.2656C996.304 56.3296 996.383 56.3948 996.483 56.4353L1001.3 58.3553L1001.61 59.8721L1001.96 61.6427L995.958 60.7883ZM1004.04 61.1446L1003.41 58.0288L1006.31 55.8687L1007.06 56.8735L1008.2 58.3818L1004.04 61.1446ZM1011.55 55.4826L1009.87 57.0528L1008.01 54.5802L1009.67 53.3056C1009.98 53.0667 1010.37 52.9696 1010.76 53.0197C1011.14 53.0741 1011.49 53.2757 1011.72 53.5882C1012.15 54.1717 1012.08 54.9856 1011.55 55.4826Z" fill="#2E2F42"/>
<path d="M991.204 61.0881L986.918 56.8214C986.503 56.4065 985.829 56.4065 985.413 56.8214L981.128 61.0881C980.928 61.2897 980.815 61.5606 980.815 61.8443C980.815 62.1281 980.927 62.4001 981.128 62.6006L985.413 66.8673C985.621 67.0742 985.894 67.1777 986.166 67.1777C986.438 67.1777 986.711 67.0742 986.918 66.8673L991.204 62.6006C991.405 62.4001 991.519 62.1281 991.519 61.8443C991.519 61.5606 991.406 61.2886 991.204 61.0881ZM986.166 64.606L983.393 61.8443L986.166 59.0827L988.941 61.8443L986.166 64.606Z" fill="#2E2F42"/>
<path d="M998.328 34.1415L997.813 36.2131C997.955 36.2483 1001.29 37.1166 1001.29 40.5108H1003.42C1003.42 36.4764 1000.09 34.5799 998.328 34.1415Z" fill="#2E2F42"/>
<path d="M1003.42 42.644H1001.29V44.7775H1003.42V42.644Z" fill="#2E2F42"/>
<path d="M1192 56C1192 61.5228 1189.76 66.5228 1186.14 70.1421C1182.52 73.7614 1177.52 76 1172 76C1166.48 76 1161.48 73.7614 1157.86 70.1421C1154.24 66.5228 1152 61.5228 1152 56C1152 50.4771 1154.24 45.4771 1157.86 41.8578C1161.48 38.2385 1166.48 36 1172 36C1177.52 36 1182.52 38.2385 1186.14 41.8578C1189.76 45.4771 1192 50.4771 1192 56Z" fill="#4D5AE5"/>
<g clip-path="url(#clip2_785756_361)">
<path d="M1179.98 52.704C1179.95 51.8538 1179.81 51.2693 1179.61 50.7629C1179.41 50.2253 1179.1 49.744 1178.69 49.3439C1178.29 48.9376 1177.8 48.6219 1177.27 48.4219C1176.76 48.2249 1176.18 48.0874 1175.33 48.05C1174.47 48.0093 1174.2 47.9999 1172.03 47.9999C1169.86 47.9999 1169.59 48.0093 1168.73 48.0468C1167.88 48.0843 1167.3 48.2219 1166.79 48.4187C1166.25 48.6219 1165.77 48.9344 1165.37 49.3439C1164.97 49.744 1164.65 50.2285 1164.45 50.7598C1164.25 51.2693 1164.12 51.8506 1164.08 52.7008C1164.04 53.5573 1164.03 53.8292 1164.03 56.0015C1164.03 58.1738 1164.04 58.4457 1164.07 59.299C1164.11 60.1491 1164.25 60.7336 1164.45 61.24C1164.65 61.7776 1164.97 62.2589 1165.37 62.659C1165.77 63.0654 1166.26 63.3811 1166.79 63.5811C1167.3 63.778 1167.88 63.9155 1168.73 63.953C1169.58 63.9906 1169.85 63.9999 1172.03 63.9999C1174.2 63.9999 1174.47 63.9906 1175.32 63.953C1176.17 63.9155 1176.76 63.778 1177.27 63.5811C1178.34 63.1653 1179.19 62.3152 1179.61 61.24C1179.8 60.7305 1179.94 60.1491 1179.98 59.299C1180.02 58.4457 1180.02 58.1738 1180.02 56.0015C1180.02 53.8292 1180.02 53.5573 1179.98 52.704ZM1178.54 59.2365C1178.51 60.0179 1178.38 60.4398 1178.27 60.7211C1178 61.4182 1177.45 61.9714 1176.75 62.2402C1176.47 62.3496 1176.04 62.4809 1175.26 62.5152C1174.42 62.5528 1174.17 62.5621 1172.03 62.5621C1169.9 62.5621 1169.64 62.5528 1168.8 62.5152C1168.02 62.4809 1167.6 62.3496 1167.32 62.2402C1166.97 62.112 1166.65 61.9089 1166.4 61.6432C1166.13 61.3837 1165.93 61.0712 1165.8 60.7243C1165.69 60.443 1165.56 60.0179 1165.53 59.2397C1165.49 58.3957 1165.48 58.1425 1165.48 56.0077C1165.48 53.8729 1165.49 53.6166 1165.53 52.7759C1165.56 51.9945 1165.69 51.5725 1165.8 51.2912C1165.93 50.9442 1166.13 50.6286 1166.4 50.3722C1166.66 50.1065 1166.97 49.9034 1167.32 49.7753C1167.6 49.6659 1168.03 49.5346 1168.8 49.5002C1169.65 49.4627 1169.9 49.4533 1172.04 49.4533C1174.17 49.4533 1174.43 49.4627 1175.27 49.5002C1176.05 49.5346 1176.47 49.6659 1176.75 49.7753C1177.1 49.9034 1177.42 50.1065 1177.67 50.3722C1177.94 50.6316 1178.14 50.9442 1178.27 51.2912C1178.38 51.5725 1178.51 51.9975 1178.54 52.7759C1178.58 53.6198 1178.59 53.8729 1178.59 56.0077C1178.59 58.1425 1178.58 58.3926 1178.54 59.2365Z" fill="#F4F4FD"/>
<path d="M1172.03 51.8913C1169.76 51.8913 1167.92 53.7322 1167.92 56.0014C1167.92 58.2707 1169.76 60.1116 1172.03 60.1116C1174.3 60.1116 1176.14 58.2707 1176.14 56.0014C1176.14 53.7322 1174.3 51.8913 1172.03 51.8913ZM1172.03 58.6676C1170.56 58.6676 1169.36 57.4737 1169.36 56.0014C1169.36 54.5292 1170.56 53.3353 1172.03 53.3353C1173.5 53.3353 1174.7 54.5292 1174.7 56.0014C1174.7 57.4737 1173.5 58.6676 1172.03 58.6676V58.6676Z" fill="#F4F4FD"/>
<path d="M1177.26 51.7288C1177.26 52.2587 1176.83 52.6883 1176.3 52.6883C1175.77 52.6883 1175.34 52.2587 1175.34 51.7288C1175.34 51.1988 1175.77 50.7692 1176.3 50.7692C1176.83 50.7692 1177.26 51.1988 1177.26 51.7288V51.7288Z" fill="#F4F4FD"/>
</g>
<path d="M1256 56C1256 61.5228 1253.76 66.5228 1250.14 70.1421C1246.52 73.7614 1241.52 76 1236 76C1230.48 76 1225.48 73.7614 1221.86 70.1421C1218.24 66.5228 1216 61.5228 1216 56C1216 50.4771 1218.24 45.4771 1221.86 41.8578C1225.48 38.2385 1230.48 36 1236 36C1241.52 36 1246.52 38.2385 1250.14 41.8578C1253.76 45.4771 1256 50.4771 1256 56Z" fill="#4D5AE5"/>
<g clip-path="url(#clip3_785756_361)">
<path d="M1244 51.0389C1243.4 51.2999 1242.77 51.4729 1242.11 51.5569C1242.79 51.1509 1243.31 50.5129 1243.55 49.7439C1242.92 50.1219 1242.22 50.3889 1241.47 50.5379C1240.87 49.8969 1240.01 49.4999 1239.08 49.4999C1237.26 49.4999 1235.8 50.9739 1235.8 52.7809C1235.8 53.0409 1235.82 53.2909 1235.88 53.5289C1233.15 53.3959 1230.74 52.0889 1229.11 50.0979C1228.83 50.5889 1228.67 51.1509 1228.67 51.7559C1228.67 52.8919 1229.25 53.8989 1230.12 54.4819C1229.59 54.4719 1229.08 54.3189 1228.64 54.0779C1228.64 54.0879 1228.64 54.1009 1228.64 54.1139C1228.64 55.7079 1229.78 57.0319 1231.27 57.3369C1231 57.4099 1230.71 57.4449 1230.41 57.4449C1230.2 57.4449 1229.99 57.4329 1229.79 57.3889C1230.21 58.6879 1231.42 59.6429 1232.85 59.6739C1231.74 60.5469 1230.32 61.0729 1228.79 61.0729C1228.52 61.0729 1228.26 61.0609 1228 61.0279C1229.45 61.9649 1231.18 62.4999 1233.03 62.4999C1239.07 62.4999 1242.37 57.4999 1242.37 53.1659C1242.37 53.0209 1242.36 52.8809 1242.36 52.7419C1243.01 52.2799 1243.55 51.7029 1244 51.0389Z" fill="#F4F4FD"/>
</g>
<path d="M1320 56C1320 61.5228 1317.76 66.5228 1314.14 70.1421C1310.52 73.7614 1305.52 76 1300 76C1294.48 76 1289.48 73.7614 1285.86 70.1421C1282.24 66.5228 1280 61.5228 1280 56C1280 50.4771 1282.24 45.4771 1285.86 41.8578C1289.48 38.2385 1294.48 36 1300 36C1305.52 36 1310.52 38.2385 1314.14 41.8578C1317.76 45.4771 1320 50.4771 1320 56Z" fill="#4D5AE5"/>
<g clip-path="url(#clip4_785756_361)">
<path d="M1302.66 50.6566H1304.13V48.1126C1303.87 48.0779 1303.01 47.9999 1302 47.9999C1299.89 47.9999 1298.45 49.3246 1298.45 51.7592V53.9999H1296.12V56.8439H1298.45V63.9999H1301.3V56.8446H1303.53L1303.88 54.0006H1301.3V52.0412C1301.3 51.2192 1301.52 50.6566 1302.66 50.6566V50.6566Z" fill="#F4F4FD"/>
</g>
<path d="M1384 56C1384 61.5228 1381.76 66.5228 1378.14 70.1421C1374.52 73.7614 1369.52 76 1364 76C1358.48 76 1353.48 73.7614 1349.86 70.1421C1346.24 66.5228 1344 61.5228 1344 56C1344 50.4771 1346.24 45.4771 1349.86 41.8578C1353.48 38.2385 1358.48 36 1364 36C1369.52 36 1374.52 38.2385 1378.14 41.8578C1381.76 45.4771 1384 50.4771 1384 56Z" fill="#4D5AE5"/>
<g clip-path="url(#clip5_785756_361)">
<path d="M1372 63.9999V63.9993H1372V58.1313C1372 55.2606 1371.38 53.0493 1368.03 53.0493C1366.41 53.0493 1365.33 53.9346 1364.89 54.7739H1364.84V53.3173H1361.66V63.9993H1364.97V58.7099C1364.97 57.3173 1365.24 55.9706 1366.96 55.9706C1368.66 55.9706 1368.69 57.5599 1368.69 58.7993V63.9999H1372Z" fill="#F4F4FD"/>
<path d="M1356.26 53.3179H1359.58V63.9999H1356.26V53.3179Z" fill="#F4F4FD"/>
<path d="M1357.92 47.9999C1356.86 47.9999 1356 48.8606 1356 49.9212C1356 50.9819 1356.86 51.8606 1357.92 51.8606C1358.98 51.8606 1359.84 50.9819 1359.84 49.9212C1359.84 48.8606 1358.98 47.9999 1357.92 47.9999V47.9999Z" fill="#F4F4FD"/>
</g>
<defs>
<clipPath id="clip0_785756_361">
<rect width="64" height="64" fill="white" transform="translate(388 24)"/>
</clipPath>
<clipPath id="clip1_785756_361">
<rect width="64" height="64" fill="white" transform="translate(676 24)"/>
</clipPath>
<clipPath id="clip2_785756_361">
<rect width="16" height="16" fill="white" transform="translate(1164 47.9999)"/>
</clipPath>
<clipPath id="clip3_785756_361">
<rect width="16" height="16" fill="white" transform="translate(1228 47.9999)"/>
</clipPath>
<clipPath id="clip4_785756_361">
<rect width="16" height="16" fill="white" transform="translate(1292 47.9999)"/>
</clipPath>
<clipPath id="clip5_785756_361">
<rect width="16" height="16" fill="white" transform="translate(1356 47.9999)"/>
</clipPath>
</defs>
</svg>
